<?xml version="1.0" encoding="utf-8"?>
<svg version="1.1" id="Layer_1" xmlns="http://www.w3.org/2000/svg" x="0px" y="0px"
     viewBox="0 0 320.1 97" style="enable-background:new 0 0 320.1 97;" xml:space="preserve">
<style type="text/css">
	.st0{fill:#4091BE;}
	.st1{fill:#B4CBE1;}
</style>
    <polygon class="st0" points="236.7,8.3 230.9,8.3 230.9,63.3 271.9,20.4 271.9,61 277.8,61 277.8,6.1 236.7,49.1 "/>
    <path class="st0" d="M67.5,61h6.4l6.4-15.1H103l6.3,15.1h6.5L91.9,5.4L67.5,61z M82.8,40.4l9.1-21.2l8.9,21.2H82.8z"/>
    <polygon class="st0" points="148.8,61.4 129.5,4.9 118.7,61 124.8,61 131.6,25.1 131.1,27.5 148.8,78.2 166.5,27.6 172.8,61
	178.9,61 168.1,4.9 "/>
    <polygon class="st0" points="294.3,32.6 319.2,7.9 319,0 288.7,30.7 288.7,7.9 282.8,7.9 282.8,61 288.7,61 288.7,38.1 290.2,36.6
	311.9,61 320.1,61 "/>
    <path class="st0" d="M218.4,15.5c-2.5-2.5-5.5-4.5-8.7-5.9c-6.8-2.8-14.5-2.8-21.3,0c-2.6,1.1-5.1,2.6-7.2,4.5l3.9,3.9
	c1.6-1.4,3.5-2.5,5.4-3.4c5.4-2.3,11.6-2.3,17,0c2.6,1.1,4.9,2.7,6.8,4.7c1.9,2,3.5,4.4,4.6,6.9c0.8,1.8,1.3,3.7,1.5,5.7h-33.2
	l-3,5.5h36.1c-0.2,2-0.7,3.9-1.5,5.7c-1.1,2.6-2.6,4.9-4.6,6.9s-4.3,3.6-6.9,4.7c-5.4,2.3-11.5,2.3-16.8,0c-2-0.9-3.8-2-5.5-3.4
	l-4,4c2.2,1.8,4.6,3.3,7.2,4.5c6.8,2.8,14.5,2.8,21.3,0c3.2-1.4,6.2-3.3,8.7-5.8s4.5-5.4,5.9-8.6c2.9-6.8,2.9-14.4,0-21.2
	C222.9,21,220.9,18,218.4,15.5z"/>
    <path class="st0" d="M37.3,15.5c-2.5-2.5-5.5-4.5-8.7-5.9C21.7,6.8,14,6.8,7.2,9.6c-2.6,1.1-5.1,2.6-7.2,4.5L3.9,18
	c1.6-1.4,3.5-2.5,5.5-3.4c5.4-2.3,11.6-2.3,17,0c2.6,1.1,4.9,2.7,6.8,4.7s3.5,4.4,4.6,6.9c0.8,1.8,1.3,3.7,1.5,5.7H6.1l-3,5.5h36.1
	c-0.2,2-0.7,3.9-1.5,5.7c-1.1,2.6-2.6,4.9-4.6,6.9s-4.3,3.6-6.9,4.7c-5.4,2.3-11.5,2.3-16.8,0c-2-0.9-3.8-2-5.5-3.4l-4,4
	c2.2,1.8,4.6,3.3,7.2,4.5c6.8,2.8,14.5,2.8,21.3,0c3.2-1.4,6.2-3.3,8.7-5.8s4.5-5.4,5.9-8.6c2.9-6.8,2.9-14.4,0-21.2
	C41.8,21,39.8,18,37.3,15.5z"/>
    <path class="st0" d="M75.8,29.1c1.8-4.2,1.7-9-0.2-13.1c-1-2.1-2.5-3.9-4.5-5.3c-1.9-1.3-4-2.1-6.3-2.4C62.5,8,60.2,7.9,58,7.9h-8.7
	v58l5.9-5V37.7h4.3c2.2,0,4.4-0.2,6.6-0.6c2.2-0.4,4.3-1.4,6-2.9C73.7,32.9,75,31.1,75.8,29.1z M70.3,27.4c-0.6,1.2-1.5,2.2-2.6,2.9
	c-1.2,0.8-2.5,1.3-3.8,1.5c-1.5,0.3-3.1,0.4-4.6,0.4h-3.9V13.4h2.2c1.7,0,3.4,0.1,5.1,0.3c1.5,0.1,3,0.5,4.4,1.2
	c1.3,0.6,2.4,1.6,3.2,2.8c0.9,1.5,1.3,3.3,1.2,5.1C71.3,24.3,71,26,70.3,27.4L70.3,27.4z"/>
    <polygon class="st0" points="270.8,0.3 244.8,0.3 241.4,5.8 267.4,5.8 "/>
    <g>
	<g>
		<path class="st1" d="M11,84.1v1.5H7.7v8.9H5.8v-8.9H2.6v-1.5H11z"/>
        <path class="st1" d="M29.5,84.1v4.4h1.8c0.3-2.8,2.1-4.6,4.6-4.6c2.7,0,4.6,2.2,4.6,5.4c0,3.4-2.1,5.5-4.7,5.5
			c-2.5,0-4.3-1.9-4.6-4.8h-1.7v4.6h-1.9V84.1H29.5z M38.7,89.2c0-2-0.9-4-2.7-4c-1.8,0-2.8,2-2.8,4.1c0,2,0.9,4,2.8,4
			C37.8,93.3,38.7,91.2,38.7,89.2z"/>
        <path class="st1" d="M59.9,84.1v4.2h5v-4.2h1.9v10.5h-1.9v-4.7h-5v4.7H58V84.1H59.9z"/>
        <path class="st1" d="M86.7,84.1v4.4c0,1.7,0,2.7-0.1,4.2l0.1,0c0.6-1.3,1-2,1.7-3.2l3.3-5.4h2.2v10.5H92v-4.4c0-1.7,0-2.6,0.1-4.3
			h-0.1C91.4,87.1,91,88,90.4,89c-1,1.6-2.1,3.6-3.3,5.5h-2.2V84.1H86.7z"/>
        <path class="st1" d="M113.9,84.1v4.2h5v-4.2h1.9v10.5h-1.9v-4.7h-5v4.7H112V84.1H113.9z"/>
        <path class="st1" d="M145.3,84.1v1.5h-4.5v8.9h-1.9V84.1H145.3z"/>
        <path class="st1" d="M166,88v1.4h-5.3V88H166z"/>
        <path class="st1" d="M189.1,94.5l-0.2-1.3h-0.1c-0.6,0.8-1.7,1.6-3.2,1.6c-2.1,0-3.2-1.5-3.2-3c0-2.5,2.2-3.9,6.3-3.9v-0.2
			c0-0.9-0.2-2.4-2.4-2.4c-1,0-2,0.3-2.7,0.8l-0.4-1.3c0.9-0.6,2.1-0.9,3.4-0.9c3.2,0,4,2.2,4,4.3V92c0,0.9,0,1.8,0.2,2.5H189.1z
			 M188.8,89.2c-2.1,0-4.4,0.3-4.4,2.4c0,1.2,0.8,1.8,1.8,1.8c1.4,0,2.2-0.9,2.5-1.7c0.1-0.2,0.1-0.4,0.1-0.6V89.2z"/>
        <path class="st1" d="M215.8,84.1v1.5h-3.3v8.9h-1.9v-8.9h-3.3v-1.5H215.8z"/>
        <path class="st1" d="M233.3,89.6c0,2.6,1.7,3.6,3.6,3.6c1.4,0,2.2-0.2,2.9-0.5l0.3,1.4c-0.7,0.3-1.8,0.6-3.5,0.6
			c-3.2,0-5.1-2.1-5.1-5.3s1.9-5.6,4.9-5.6c3.4,0,4.3,3,4.3,4.9c0,0.4,0,0.7-0.1,0.9H233.3z M238.9,88.3c0-1.2-0.5-3.1-2.6-3.1
			c-1.9,0-2.8,1.8-2.9,3.1H238.9z"/>
        <path class="st1" d="M266.1,84.1v10.5h-1.9v-9h-3.6v2.7c0,2.9-0.3,4.9-1.6,5.8c-0.5,0.4-1.1,0.6-2.1,0.6l-0.2-1.5
			c0.4-0.1,0.8-0.2,1-0.4c1-0.7,1.1-2.2,1.1-4.5v-4.2H266.1z"/>
        <path class="st1" d="M286.2,84.1v3.5c0.4-0.1,1.2-0.1,1.7-0.1c2.4,0,4.8,0.7,4.8,3.5c0,1.1-0.4,1.8-1.1,2.4c-1.1,1-3,1.2-4.5,1.2
			c-1.1,0-2-0.1-2.8-0.2V84.1H286.2z M286.2,93.2c0.4,0,0.8,0.1,1.4,0.1c1.4,0,3.3-0.5,3.3-2.2c0-1.8-1.9-2.2-3.3-2.2
			c-0.5,0-0.9,0-1.4,0.1V93.2z"/>
        <path class="st1" d="M311.3,89.6c0,2.6,1.7,3.6,3.6,3.6c1.4,0,2.2-0.2,2.9-0.5l0.3,1.4c-0.7,0.3-1.8,0.6-3.5,0.6
			c-3.2,0-5.1-2.1-5.1-5.3s1.9-5.6,4.9-5.6c3.4,0,4.3,3,4.3,4.9c0,0.4,0,0.7-0.1,0.9H311.3z M316.8,88.3c0-1.2-0.5-3.1-2.6-3.1
			c-1.9,0-2.8,1.8-2.9,3.1H316.8z"/>
	</g>
</g>
</svg>
