<?xml version="1.0" encoding="utf-8"?>
<svg version="1.1" id="Layer_1" xmlns="http://www.w3.org/2000/svg" xmlns:xlink="http://www.w3.org/1999/xlink" x="0px" y="0px"
	 viewBox="0 0 320.1 78.2" style="enable-background:new 0 0 320.1 78.2;" xml:space="preserve">
<style type="text/css">
	.st0{fill:#becdd7;}
</style>
<title>aramake_rus2 [Converted]</title>
<polygon class="st0" points="236.7,8.3 230.9,8.3 230.9,63.3 271.9,20.4 271.9,61 277.8,61 277.8,6.1 236.7,49.1 "/>
<path class="st0" d="M67.5,61h6.4l6.4-15.1H103l6.3,15.1h6.5L91.9,5.4L67.5,61z M82.8,40.4l9.1-21.2l8.9,21.2H82.8z"/>
<polygon class="st0" points="148.8,61.4 129.5,4.9 118.7,61 124.8,61 131.6,25.1 131.1,27.5 148.8,78.2 166.5,27.6 172.8,61 
	178.9,61 168.1,4.9 "/>
<polygon class="st0" points="294.3,32.6 319.2,7.9 319,0 288.7,30.7 288.7,7.9 282.8,7.9 282.8,61 288.7,61 288.7,38.1 290.2,36.6 
	311.9,61 320.1,61 "/>
<path class="st0" d="M218.4,15.5c-2.5-2.5-5.5-4.5-8.7-5.9c-6.8-2.8-14.5-2.8-21.3,0c-2.6,1.1-5.1,2.6-7.2,4.5l3.9,3.9
	c1.6-1.4,3.5-2.5,5.4-3.4c5.4-2.3,11.6-2.3,17,0c2.6,1.1,4.9,2.7,6.8,4.7c1.9,2,3.5,4.4,4.6,6.9c0.8,1.8,1.3,3.7,1.5,5.7h-33.2
	l-3,5.5h36.1c-0.2,2-0.7,3.9-1.5,5.7c-1.1,2.6-2.6,4.9-4.6,6.9c-2,2-4.3,3.6-6.9,4.7c-5.4,2.3-11.5,2.3-16.8,0c-2-0.9-3.8-2-5.5-3.4
	l-4,4c2.2,1.8,4.6,3.3,7.2,4.5c6.8,2.8,14.5,2.8,21.3,0c3.2-1.4,6.2-3.3,8.7-5.8c2.5-2.5,4.5-5.4,5.9-8.6c2.9-6.8,2.9-14.4,0-21.2
	C222.9,21,220.9,18,218.4,15.5z"/>
<path class="st0" d="M37.3,15.5c-2.5-2.5-5.5-4.5-8.7-5.9C21.7,6.8,14,6.8,7.2,9.6c-2.6,1.1-5.1,2.6-7.2,4.5l3.9,3.9
	c1.6-1.4,3.5-2.5,5.5-3.4c5.4-2.3,11.6-2.3,17,0c2.6,1.1,4.9,2.7,6.8,4.7c1.9,2,3.5,4.4,4.6,6.9c0.8,1.8,1.3,3.7,1.5,5.7H6.1l-3,5.5
	h36.1c-0.2,2-0.7,3.9-1.5,5.7c-1.1,2.6-2.6,4.9-4.6,6.9c-2,2-4.3,3.6-6.9,4.7c-5.4,2.3-11.5,2.3-16.8,0c-2-0.9-3.8-2-5.5-3.4l-4,4
	c2.2,1.8,4.6,3.3,7.2,4.5c6.8,2.8,14.5,2.8,21.3,0c3.2-1.4,6.2-3.3,8.7-5.8c2.5-2.5,4.5-5.4,5.9-8.6c2.9-6.8,2.9-14.4,0-21.2
	C41.8,21,39.8,18,37.3,15.5z"/>
<path class="st0" d="M75.8,29.1c1.8-4.2,1.7-9-0.2-13.1c-1-2.1-2.5-3.9-4.5-5.3c-1.9-1.3-4-2.1-6.3-2.4c-2.3-0.3-4.6-0.4-6.8-0.4
	h-8.7v58l5.9-5V37.7h4.3c2.2,0,4.4-0.2,6.6-0.6c2.2-0.4,4.3-1.4,6-2.9C73.7,32.9,75,31.1,75.8,29.1z M70.3,27.4
	c-0.6,1.2-1.5,2.2-2.6,2.9c-1.2,0.8-2.5,1.3-3.8,1.5c-1.5,0.3-3.1,0.4-4.6,0.4h-3.9V13.4h2.2c1.7,0,3.4,0.1,5.1,0.3
	c1.5,0.1,3,0.5,4.4,1.2c1.3,0.6,2.4,1.6,3.2,2.8c0.9,1.5,1.3,3.3,1.2,5.1C71.3,24.3,71,26,70.3,27.4L70.3,27.4z"/>
<polygon class="st0" points="270.8,0.3 244.8,0.3 241.4,5.8 267.4,5.8 "/>
</svg>
